<svg xmlns="http://www.w3.org/2000/svg" width="42" height="35" fill="none"><g fill="#2D3134"><path fill-rule="evenodd" d="M28.157 0c1.124 0 2.036.923 2.036 2.061v6.51h6.53c-.03 4.08-.018 9.351-.008 14.141.004 2.033.008 3.98.009 5.711 2.059 1.213 3.958 2.845 5.276 5.407l-.966-.734c-2.245-1.705-5.9-3.173-9.22-3.702-1.92-.307-5.625-.011-7.587.604l-.43.135.589.347c.833.49 1.613 1.266 1.845 1.837.22.541.28.556 1.516.362 1.439-.224 6.226-.116 5.66.128-.114.049-.745.126-1.405.173-2.173.152-4.935.665-6.52 1.211-.172.06-.308-.107-.564-.687-.801-1.813-2.658-3.386-4.779-4.047l-.578-.18.674.069c.713.072 2.133.338 2.603.487.24.076.265.047.17-.204-.51-1.36-1.986-2.915-3.564-3.757-1.411-.753-2.649-1.018-4.425-.947-1.375.054-3.028.376-3.028.589 0 .053.098.441.217.864.383 1.356.559 2.798.405 3.324-.086.296-.148.378-.157.21-.029-.53-.776-2.044-1.48-2.994-2.053-2.776-5.311-4.214-9.546-4.214H0A13318 13318 0 0 0 .004 8.57H6.35V2.061C6.35.923 7.261 0 8.386 0h19.771ZM9.136 8.57V2.82h18.271v5.75H9.136Zm8.81 4.097c-.307.17-.559.363-.559.43 0 .066.442.495.982.954 1.375 1.168 3.09 2.928 3.036 3.116-.025.087-.815.606-1.755 1.154l-1.71.997-1.475-.152c-1.367-.142-1.496-.137-1.774.068-.445.327-.379.475.44.982.65.402.748.522.788.956.04.438.093.502.446.535.35.033.423.116.562.645.088.334.16.716.16.849 0 .32.357.416.883.239.362-.122.494-.306.86-1.2l.431-1.057 1.949-.817c1.072-.449 1.99-.819 2.04-.822.163-.009 1.045 1.708 1.72 3.342.397.964.737 1.597.87 1.62.12.02.496-.077.835-.218l.617-.255-.102-.908c-.098-.88-.089-.915.295-1.16.515-.33.498-.517-.081-.885l-.477-.303.477-.325c.609-.416.6-.602-.047-.942-.494-.26-.523-.312-.524-.959l-.002-.683 1.74-.834c1.851-.887 2.741-1.563 3.236-2.457.158-.287.246-.628.195-.758-.135-.344-1.053-.514-1.994-.37-1.073.166-1.631.376-3.229 1.216-.77.405-1.475.736-1.567.736-.092 0-.467-.146-.834-.326-.547-.268-.681-.407-.754-.778-.1-.51-.368-.647-.926-.474-.563.173-.664.149-.664-.163 0-.155-.09-.38-.2-.503-.176-.196-.264-.205-.75-.075-.517.14-.6.122-1.411-.285-.474-.237-.93-.433-1.014-.435-.084-.002-.404.136-.712.305Z" clip-rule="evenodd"/><path d="M8.633 30.49c3.49.316 5.942 1.67 7.005 3.87.396.82.308.84-.611.132-2.304-1.774-4.903-2.885-8.507-3.637-3.154-.659 1.184-.449 2.113-.365Z"/></g></svg>